<svg xmlns="http://www.w3.org/2000/svg" width="129.086" height="95.599" viewBox="0 0 129.086 95.599"><g transform="translate(0 0.01)"><path d="M90.79,28.18c.07.87-.27,1-1.06,1H76.01c-.79,0-1-.2-1-1V9.96c0-.73.17-.95.92-.95q6.6.06,13.2,0c.8,0,1.07.24,1.12,1,.1,1.5.1,1.53-1.44,1.54L78,11.64c-.22.13-.19.35-.19.55v5.19c.21.52.66.26,1,.26,3.28,0,6.56.05,9.84,0,.92,0,.94.43.89,1.08s.24,1.28-.9,1.28c-3.32-.07-6.64,0-10-.05-.77,0-.88.21-.85.92.08,1.74.09,3.49,0,5.23,0,.71.17.79.77.78h11.1C90.91,26.81,90.72,27.44,90.79,28.18Z" fill="#396aa7"/><path d="M104.39,20.05c1.83-.31,3.47-.77,4.61-2.2a5.22,5.22,0,0,0,.67-5.44c-.83-2.08-2.55-2.93-4.68-3.14-3.58-.35-7.18-.12-10.77-.22-.8,0-1,.22-1,1V27.12c0,2.19,0,2.16,2.17,2.1.67,0,.81-.26.8-.86v-4.4c0-1.14-.48-2.67.18-3.33s2.25-.13,3.42-.24A3.92,3.92,0,0,1,103.26,22c1.83,2,3,4.49,4.67,6.67.17.23.24.57.66.56h3.13C110.36,26,106.73,21.52,104.39,20.05Zm-7.65-2c-.42,0-.53-.16-.53-.55V11.95c0-.48.2-.6.62-.59h3.6c1.11.11,2.45,0,3.82.13a3.22,3.22,0,0,1,3,3.16,3.32,3.32,0,0,1-3.18,3.17,54.11,54.11,0,0,1-7.33.25Z" fill="#396aa7"/><path d="M126.58,28c-3,2-6.27,1.88-9.55.92a6.33,6.33,0,0,1-4.62-5c-.17-.76-.12-1.31.88-1.25a4,4,0,0,0,1-.11.55.55,0,0,1,.72.53c.45,2.73,2.45,3.64,4.82,4a8.16,8.16,0,0,0,4.12-.4,3.21,3.21,0,0,0,2.3-2.83,2.91,2.91,0,0,0-2.18-2.75c-2.07-.82-4.29-1.07-6.4-1.73a9.32,9.32,0,0,1-2.48-1.09,4.83,4.83,0,0,1,0-8,8.66,8.66,0,0,1,5.29-1.4,9,9,0,0,1,5.53,1.48A5.41,5.41,0,0,1,128.27,14c.12.62,0,1-.77,1a2.89,2.89,0,0,0-.83,0c-.72.14-1.07-.08-1.19-.86A2.81,2.81,0,0,0,123.94,12a7,7,0,0,0-6.81,0,2.41,2.41,0,0,0,.4,4.46,42.53,42.53,0,0,0,5.47,1.4A12.93,12.93,0,0,1,126.2,19a5.15,5.15,0,0,1,.38,9Z" fill="#396aa7"/><path d="M72.19,16.67c-.74-4.84-3.53-7.2-8.4-7.49-2.58-.15-5.16,0-7.74-.13-.75,0-1,.19-1,1V28.36c0,.52.07.86.72.85a87.429,87.429,0,0,0,9.3-.21,7.32,7.32,0,0,0,5.61-3.36,12.49,12.49,0,0,0,1.51-8.97Zm-3.42,6.68a5,5,0,0,1-4.2,3.29,42.25,42.25,0,0,1-6.06.24c-.5,0-.65-.16-.65-.66v-14c0-.53.22-.64.68-.62h4.83c3.13,0,5.28,1.59,5.9,4.66a12.16,12.16,0,0,1-.5,7.09Z" fill="#396aa7"/><path d="M13.17,28c0,.61.15,1.22-.9,1.2-3.8-.06-7.6,0-11.41,0-.73,0-.86-.28-.86-.92V10.07C0,9.26.24,9,1.06,9c1.71.05,1.72,0,1.73,1.71V25.78c0,.9.25,1.09,1.1,1.07,2.79-.05,5.58,0,8.37,0C13.22,26.82,13.2,27.33,13.17,28Z" fill="#396aa7"/><path d="M32.15,28.06c0,.81-.14,1.17-1.07,1.16H17.36c-.77,0-1-.18-1-1V10c0-.71.15-1,.92-1H30.79c.77,0,.92.25.91.95,0,1.59,0,1.59-1.63,1.59-3.17,0-6.35.05-9.53,0-1,0-1.32.24-1.24,1.25a37.74,37.74,0,0,1,0,4c0,.7.2.88.87.87,3.21,0,6.43.06,9.64-.05,1.25,0,1,.67,1.06,1.36.1.9-.32,1-1.08,1H20.26c-.81,0-1,.24-1,1,.06,1.68.06,3.35,0,5,0,.76.24.92.95.91,3.6,0,7.19,0,10.79-.05C32.06,26.82,32.15,27.24,32.15,28.06Z" fill="#396aa7"/><path d="M128.56,95.08c-.21.65-.59.55-1.06.39a93.289,93.289,0,0,0-20.07-4.37,137.709,137.709,0,0,0-21.2-.81c-4.49.17-9,.45-13.45.94a164.555,164.555,0,0,0-18.58,3c-1.35.31-1.93.45-2.38.13v-1.5c0,.65.23.59,1.23.35a169.168,169.168,0,0,1,17-2.91A178.718,178.718,0,0,1,91.14,89c4.11,0,8.22.2,12.33.53a115.672,115.672,0,0,1,12.72,1.72,83.191,83.191,0,0,1,11.72,3.09C128.28,94.42,128.78,94.41,128.56,95.08Z" fill="#396aa7"/><path d="M60.58,58.64a36.25,36.25,0,0,1-5.12,16.19,58.509,58.509,0,0,1-3.62,5.36c-.12.17-.26.31-.24.54a35.311,35.311,0,0,1,.22,3.84c0,.72,0,1.45,0,2.17,0,1.83-.08,3.65,0,5.48v2.17a5.11,5.11,0,0,1-1.07-1.69q-1.44-2.83-2.87-5.7c-.33-.64-.44-1.21.32-1.69.55-.35.64-1,.89-1.59.95-2.15.36-3.65-1.3-5.32a47.41,47.41,0,0,1-12.53-24c-.33-1.54-.3-1.55,1.33-1.56h.54c-.41-1.08-1.68-1.29-2.09-2.27a7.32,7.32,0,0,1-.15-2.38q0-5.37,0-10.74a4.33,4.33,0,0,1,.1-.71c-.09-.67.19-.82.77-.55.37.18.75.33,1.37.59-.88-1-2-1.57-2.15-2.75a13.65,13.65,0,0,1,.21-4.58l7.37,12.52-.24.2a50.139,50.139,0,0,1-5-3,30.49,30.49,0,0,0,0,4.08,47.34,47.34,0,0,1,.15,5.95,1.94,1.94,0,0,0,.9,1.81c1.82,1.29,3.55,2.69,5.51,4.2H39.27c-1.62,0-1.62,0-1.22,1.5a43.67,43.67,0,0,0,8.87,17.41,18.73,18.73,0,0,0,2.56,2.56c0-1.36.06-2.56,0-3.75-.26-4.24-.45-8.49-.86-12.71q-.87-9-2.5-17.94c-.5-2.75-1.11-5.49-1.67-8.24a24.54,24.54,0,0,1-1-4.49,19,19,0,0,1,1.4,4.07,113.432,113.432,0,0,1,3.47,12.86A119.56,119.56,0,0,1,50.39,60c.31,3.36.65,6.7.84,10.06.11,1.92.27,3.84.41,5.83,5.14-5.42,8.47-18.67,5.48-28.55-1.83,1.37-3.08,3.3-4.94,5,.77-3.09,1.48-6,2.2-8.83.18-.7.34-1.4.55-2.1a2.8,2.8,0,0,0-.13-1.78A70.651,70.651,0,0,0,51.66,32a1.354,1.354,0,0,1,.45-2,6.691,6.691,0,0,0,.71-.63c-.1-.08-.16-.16-.19-.15-1.9.42-2.54-.74-3.29-2.23a140.52,140.52,0,0,0-7.63-13c-1.43-2.23-2.87-4.45-4.31-6.68l-.27.06a9.24,9.24,0,0,0,0,1.49,48.15,48.15,0,0,1,.17,7,1.12,1.12,0,0,0,.74,1.16,54.73,54.73,0,0,1,5.5,2.9H38.29c-.79,0-1,.2-.94,1,.05,2.47,0,4.95,0,7.43,0,1.26-.87.74-1.46.83s-.91,0-.92-.8c-.18-9.25-.22-18.49-.19-27.74a3.049,3.049,0,0,1,.07-.65c1,1.39,1.94,2.61,2.8,3.87C41.38,9.23,45,14.65,48.35,20.23a110.36,110.36,0,0,1,8.86,18.51,3.81,3.81,0,0,1,.12,2.36c-.25,1-.49,2.09-.77,3.27.89-.37,1.23-1.15,1.88-1.57a42,42,0,0,1,2.14,15.84Z" fill="#396aa7"/><path d="M77.92,16.48a1.34,1.34,0,0,1-.13.9V12.19a.6.6,0,0,1,.19-.55C77.94,13.25,77.94,14.87,77.92,16.48Z" fill="#8f8f91"/><path d="M129.05,65.84a.53.53,0,0,0-.73-.18c-.7.55-1.35,0-2,0-1.76-.14-2.62.62-2.66,2.38a11,11,0,0,0,0,1.15c.06.65-.27.91-.86.87s-1.59.33-2-.18.5-1,.72-1.61l.06-.09a1.58,1.58,0,0,0-1.22-2.43,8.59,8.59,0,0,0-2.09,0,1.66,1.66,0,0,0-1.44,2.55,17.648,17.648,0,0,0,1.08,1.7c-2.81.12-2.81.12-2.85-2.52a4,4,0,0,0-.12-1.14,2,2,0,0,0-2-1.55,5.831,5.831,0,0,0-1.65.17c-.77.17-1.26.92-1.88,1.07-1.73.41-2.09,1.54-2,3,0,.66-.08,1-.89,1s-1-.28-.9-1a13.348,13.348,0,0,0,0-2,1.32,1.32,0,0,0-1.43-1.44h-3.13c-.6,0-.69.28-.67.78s.49.57.81.45a9.83,9.83,0,0,1,2.59-.17c.63-.07.87.24.89.83.1,2.52.1,2.52-2.41,2.52a2.14,2.14,0,0,0-.62,0c-.5.14-1.41-.42-1.42.46s.92.49,1.42.49q12.69.06,25.38,0c2,0,1.59.1,1.65-1.6a9,9,0,0,1,.15-2.88C128.92,66.31,129.18,66.11,129.05,65.84ZM109.84,70c-.5-.09-1.58.46-1.49-1,.07-1.3.39-1.85,1.3-1.86,1.22,0,1.75.6,1.87,1.81S110.84,70.07,109.84,70Zm3.46,0c-.65,0-.87-.22-.8-.84a2.49,2.49,0,0,0-1.09-2.52c-.7-.46-.15-.65.21-.79,1.71-.63,2.39,0,2.39,2.29v1c.05.63-.01.92-.71.92Zm5.93-.23a5.74,5.74,0,0,1-1.62-2.34c.14-1,.91-.77,1.61-.81s1.45-.28,1.49.86a5.86,5.86,0,0,1-1.48,2.35Zm7,.21c-1.57,0-1.57,0-1.57-1.37,0-1.58.38-2.2,1.31-2.17a1.84,1.84,0,0,1,1.8,2c-.01,1.56-.01,1.56-1.54,1.56Z" fill="#8f8f91"/><path d="M114.92,82.61h4.4c.83,0,1.31-.28,1.2-1.24a14.723,14.723,0,0,1,0-1.88c0-.4-.12-.87.57-.87s.46.48.47.82a13.219,13.219,0,0,1,0,2c-.12,1,.48,1.17,1.25,1.18s1.39-.21,1.36-1.25c-.07-1.78,0-3.56,0-5.34,0-.36-.2-.92.49-.94s.48.56.49.92v5.44c0,1,.61,1.14,1.33,1.15s1.14-.28,1.09-1.14c-.07-1.47,0-2.93,0-4.4,0-.33.09-.68-.22-1a.6.6,0,0,1-.09-.85c.25-.3.65-.18,1-.13s.3.4.32.66a50.3,50.3,0,0,1,0,6.38,1.168,1.168,0,0,1-1.33,1.29c-2-.21-3.93.26-5.9-.13a7.07,7.07,0,0,0-1.42.15H104.74c-.29,0-.57,0-.56-.42s.28-.42.57-.42h3.14c.59,0,.85-.16.76-.77v-.73c-.15-.65.54-1.58-.24-1.92a4.25,4.25,0,0,0-2.86,0c-.34.11-.62.34-.93,0a.72.72,0,0,1-.11-.79c.14-.41.53-.24.81-.24h3a1.12,1.12,0,0,1,1.26,1.11,8.1,8.1,0,0,1,.08,2.6c-.11.58.09.74.64.72h2.3Z" fill="#8f8f91"/><path d="M93.81,63.31c0-.28,0-.59-.4-.59s-.76-.16-1,.13-.1.58.26.75a.43.43,0,0,1,.15.35,42.771,42.771,0,0,0,0,5.43.6.6,0,0,1-.76.64c-.42-.05-1.35.35-1.48-.28a10.811,10.811,0,0,1,0-3.11c0-.26.52-.53.19-.86a.87.87,0,0,0-1-.09,1.68,1.68,0,0,1-1.37,0c-1.77-.4-2.76.32-2.94,2.09a11.8,11.8,0,0,0-.08,1.46c0,.55-.12.82-.75.81h-4.6c-.66,0-.85-.25-.84-.87V64.25a1.248,1.248,0,0,1,.09-.6c.09-.13.45-.55.2-.81s-.74-.18-1.09-.1-.24.53-.24.8v5.24c0,1.75.36,2.22,2.3,2.22h11.5c.82,0,1.65-.09,1.75-1.21a63.639,63.639,0,0,0,.11-6.48ZM88,70c-.77,0-1.72.32-1.64-1.14.11-1.79.35-2.38,1.31-2.38,1.23,0,1.85.68,1.84,2C89.48,70.3,89.71,70,88,70Z" fill="#8f8f91"/><path d="M86.44,83.45H67.66a2.28,2.28,0,0,1-2.46-1.37,4.24,4.24,0,0,1,.4-3.62c.18-.33.45-.22.71-.06s.36.31.17.59a2.39,2.39,0,0,0-.3.54c-.79,1.94-.06,3,2,3.08h4.6c.82,0,1.35-.27,1.19-1.24s.28-1.78-.37-2.59a.34.34,0,0,1,.34-.55c.41,0,1.07-.35,1.08.53s0,1.89,0,2.82c-.06.72.3.93.88,1a5.93,5.93,0,0,0,.73,0H96.11a5.891,5.891,0,0,0,.84,0c.59-.07,1.06-.26.94-1-.16-.93.3-1.93-.39-2.8a.32.32,0,0,1,.28-.52c.39,0,1.07-.35,1.11.33a15.11,15.11,0,0,1-.06,3.86c-.18.89-.92,1-1.71,1Z" fill="#8f8f91"/><path d="M113.18,38v5.2c0,.37.11.81-.51.82s-.69-.3-.69-.79V36.75c0-.34-.19-.85.32-1a1.14,1.14,0,0,1,1.38.44c.89,1.33,1.82,2.63,2.73,3.94a5.64,5.64,0,0,0,1.25,1.37q0-2.46,0-4.92c0-.27-.11-.61.16-.78a1.25,1.25,0,0,1,.7-.07c.34,0,.33.32.33.56V43.4c0,.29,0,.55-.41.59a1.31,1.31,0,0,1-1.27-.59c-.74-1-1.46-2.11-2.19-3.17l-1.6-2.31Z" fill="#8f8f91"/><path d="M74.21,55.51V50.19c0-.45-.1-.91.64-.91s.62.48.62.92v6.38c0,.37.21.9-.43,1a1.15,1.15,0,0,1-1.25-.54c-1.19-1.76-2.4-3.5-3.61-5.25-.07-.1-.16-.19-.4-.49v5.79c0,.3-.36.45-.7.45s-.46-.24-.46-.55V49.77c0-.25,0-.49.36-.53a1.21,1.21,0,0,1,1.29.46c1,1.46,2,2.91,3,4.37Z" fill="#8f8f91"/><path d="M126.64,39.66c1.83,0,1.74,0,1.87,1.77a1.88,1.88,0,0,1-1.4,2.11c-2.66,1.15-5.29.35-6.35-1.95a4.86,4.86,0,0,1,.95-5.06,5,5,0,0,1,5-.69,2.63,2.63,0,0,1,1.38,1.51c.09.25.31.51-.09.7s-.61.22-.9-.16a3.1,3.1,0,0,0-4.14-1c-1.15.69-1.7,3-1.07,4.37a3.14,3.14,0,0,0,3.79,1.59,7.5,7.5,0,0,0,1.16-.45c.6-.28.35-.85.36-1.3s-.47-.38-.78-.4-.84,0-1.26,0-.46-.22-.47-.54.12-.52.49-.51S126.15,39.66,126.64,39.66Z" fill="#8f8f91"/><path d="M77.68,35.47c-2.51,0-4.1,1.72-4.1,4.41a4.07,4.07,0,0,0,4.15,4.18c2.55,0,4.16-1.79,4.13-4.59a4,4,0,0,0-4.18-4ZM77.76,43c-1.89,0-2.91-1.13-2.92-3.25s1-3.23,2.79-3.24a2.94,2.94,0,0,1,3.05,3.3C80.65,41.8,79.54,43,77.76,43Z" fill="#8f8f91"/><path d="M80.7,57.68a3.192,3.192,0,0,1-3.29-1.91c-.13-.36-.33-.77.19-1s.7-.07.9.48c.5,1.39,3.07,1.88,4.11.85a1,1,0,0,0-.14-1.69,4.94,4.94,0,0,0-1.23-.52c-.57-.18-1.16-.26-1.72-.44-1.51-.49-2-1.09-1.94-2.21a2.52,2.52,0,0,1,2.34-2.14c1.6-.26,3.22.37,3.73,1.49.15.33.42.78,0,1s-.79.07-1-.48a2.36,2.36,0,0,0-3.18-.78c-.39.26-.72.55-.64,1.1a1,1,0,0,0,.83.84c.66.21,1.34.36,2,.53,1.87.5,2.73,1.39,2.54,2.64s-1.43,2.17-3.24,2.18Z" fill="#8f8f91"/><path d="M123.14,56.63h4.47c.33,0,.78-.11.81.41s-.4.56-.8.56h-4.91c-.52,0-.74-.17-.79-.71a66.171,66.171,0,0,1,0-6.9c0-.51.25-.73.79-.72h4.91c.39,0,.68,0,.67.56s-.37.5-.72.5h-3.56c-.54,0-.81.1-.82.74-.05,1.78-.08,1.78,1.72,1.78h2.4c.29,0,.58,0,.58.42s-.3.42-.59.42h-3.55c-.5,0-.66.12-.6.66a19,19,0,0,1-.01,2.28Z" fill="#8f8f91"/><path d="M110.73,52.3V49.89c0-.36.1-.6.53-.6s.7.05.73.53A25.8,25.8,0,0,1,111.7,56a1.451,1.451,0,0,1-.11.29c-.59,1.15-2.26,1.7-4.1,1.36a2.6,2.6,0,0,1-2.25-2.5,42.006,42.006,0,0,1-.15-5c0-.45,0-.81.65-.81s.62.34.66.8c.14,1.64-.25,3.27,0,4.9.22,1.32.83,1.71,2.42,1.65a1.78,1.78,0,0,0,1.88-1.82q0-.63,0-1.26V52.3Z" fill="#8f8f91"/><path d="M100,39.77V36.42c0-.42,0-.74.59-.76s.68.26.69.77c0,.82-.37,1.89.16,2.41s1.66.17,2.52.18c1.7,0,1.7,0,1.69-1.68V36.19c0-.54.35-.49.71-.51s.56.15.55.55v7.11c0,.42-.22.54-.59.55s-.67-.1-.67-.58V40.8c0-.53-.14-.79-.7-.71h-.42c-1,0-2.35-.32-3,.18s-.16,1.89-.23,2.88c0,.42,0,.75-.59.76s-.69-.29-.68-.78C100,42,100,40.88,100,39.77Z" fill="#8f8f91"/><path d="M90.18,43.09c-1-2.27-2-4.53-2.92-6.81-.19-.47-.44-.67-.93-.59a.79.79,0,0,0-1,.6c-.85,2.28-1.81,4.53-2.69,6.8-.1.25-.51.68.06.85a.81.81,0,0,0,1.07-.41c.23-.55.43-1.1.65-1.66.07-.18,0-.49.28-.5a19.21,19.21,0,0,1,3.13,0c.6.09.48.92.73,1.4a7.359,7.359,0,0,0,.47.93.93.93,0,0,0,1.16.16C90.64,43.7,90.29,43.35,90.18,43.09ZM85.4,40.46c-.61,0-.27-.48-.18-.77.33-.94.67-1.88,1.07-3,.45,1.23.83,2.26,1.2,3.3,0,.09.1.26.07.28C86.89,40.75,86.12,40.48,85.4,40.46Z" fill="#8f8f91"/><path d="M92.23,39.73c0,2.61,2,4.05,3.94,3a2,2,0,0,0,1.08-1.21c.2-.66.6-.6,1-.4s.16.67,0,1a3.93,3.93,0,0,1-6.82,0,5.06,5.06,0,0,1-.08-4.46,4,4,0,0,1,6.62-.67c.18.27.68.69.18,1s-.91.38-1.21-.37c-.47-1.17-1.57-1.14-2.59-1.05a2.26,2.26,0,0,0-2,1.63,3.34,3.34,0,0,0-.12,1.53Z" fill="#8f8f91"/><path d="M65,39.71c0-2,.74-3.28,2.24-3.89a3.9,3.9,0,0,1,4.44.75,2.9,2.9,0,0,1,.49.66c.15.27.33.6-.1.79s-.61.23-.91-.15c-1-1.33-2.08-1.73-3.28-1.23a2.89,2.89,0,0,0-1.69,3,3.86,3.86,0,0,0,.38,2A2.49,2.49,0,0,0,68.92,43a2.17,2.17,0,0,0,2.22-1.42c.27-.67.6-.72,1.08-.46s.16.74,0,1.06A3.83,3.83,0,0,1,67.89,44,3.74,3.74,0,0,1,65,40.75Z" fill="#8f8f91"/><path d="M88.17,53.76c0-.91-.06-1.82,0-2.72.06-.6-.15-.73-.67-.7s-1.12,0-1.68,0c-.32,0-.52-.1-.53-.47s.14-.58.55-.57h6c.36,0,.5.17.5.52s-.11.54-.48.53a12.341,12.341,0,0,1-1.36,0c-.79-.08-1.1.15-1.06,1,.08,1.77,0,3.56,0,5.34,0,.4.06.86-.58.9s-.63-.39-.64-.82v-3Z" fill="#8f8f91"/><path d="M70.36,65.8a.86.86,0,0,0-1.07-.1c-.42.38-.71.15-1.09,0-1.93-.57-3.2.36-3.22,2.33,0,2.84,0,2.88,2.93,3,2.1,0,2.09,0,2.12-2.07a7,7,0,0,1,.11-2.38C70.24,66.32,70.58,66.07,70.36,65.8ZM67.53,70c-.67-.06-1.63.32-1.62-1,0-1.84.43-2.62,1.39-2.58,1.12,0,1.73.73,1.73,2C69,70.3,69.17,70,67.53,70Z" fill="#8f8f91"/><path d="M116.32,53.84V52.69c0-.73.22-1.62-.11-2.14s-1.3-.14-2-.19c-.43,0-.77-.11-.75-.63s.46-.43.79-.43h5.44c.39,0,.78,0,.76.55s-.38.47-.73.5c-.7.08-1.65-.35-2,.24s-.1,1.35-.1,2v3.66c0,.48.42,1.32-.64,1.3s-.55-.8-.58-1.25A15.331,15.331,0,0,1,116.32,53.84Z" fill="#8f8f91"/><path d="M100.81,53.91v2.93c0,.48-.07.8-.68.78s-.58-.34-.58-.76V51.11c0-.6-.17-.82-.76-.77a14.362,14.362,0,0,1-1.47,0c-.47,0-.6-.15-.63-.54s.24-.51.59-.51h5.86c.33,0,.53.09.54.47s-.12.6-.54.58h-.42c-1.93,0-1.93,0-1.92,2v1.57Z" fill="#8f8f91"/><path d="M74.31,71h-2c-.35,0-.74,0-.76-.5s.45-.5.75-.5h3c.52,0,.8-.16.74-.71a.74.74,0,0,1,0-.21c0-2.53-.62-3-3.16-2.33-.37.11-.77.32-1-.06a1,1,0,0,1,0-.81c.14-.45.58-.28.9-.28h2.93A1.21,1.21,0,0,1,77,66.85a28.409,28.409,0,0,1,.11,3.45c0,.54-.27.74-.79.72s-1.32,0-2,0Z" fill="#8f8f91"/><path d="M110.05,39.76V43.3c0,.4-.08.68-.57.67a.55.55,0,0,1-.63-.63q0-3.54,0-7.08c0-.46.22-.58.65-.59s.56.26.56.66C110,37.47,110.05,38.62,110.05,39.76Z" fill="#8f8f91"/><path d="M102.45,81.63c0,.93.07,1.88,0,2.81a2.38,2.38,0,0,1-2.89,2.15c-.35-.06-.59-.16-.6-.57s.27-.51.6-.47c1.58.16,2-.49,1.91-2.06V79.94a1.679,1.679,0,0,0-.11-.8c-.31-.25-.42-.57-.22-.79s.73-.15,1.09-.11.29.42.29.67v2.72Z" fill="#8f8f91"/><path d="M66.25,53.42v3.55c0,.42-.1.67-.58.65a.57.57,0,0,1-.63-.66V49.85c0-.49.3-.54.69-.55s.53.2.53.56v3.56Z" fill="#8f8f91"/><path d="M93.9,53.3V50.06c0-.47,0-.79.66-.78s.62.27.62.72v6.79c0,.43-.06.73-.6.75s-.67-.32-.66-.79C93.91,55.6,93.9,54.45,93.9,53.3Z" fill="#8f8f91"/><path d="M95.36,67.2V64.38c0-.29.13-.63-.21-.85a.44.44,0,0,1-.14-.64c.2-.32.57-.17.86-.16s.36.26.38.51a53.759,53.759,0,0,1,0,7.18c0,.29,0,.59-.44.58s-.43-.37-.43-.68C95.35,69.28,95.36,68.24,95.36,67.2Z" fill="#8f8f91"/><path d="M70.72,84.87c0,.41-.24.46-.59.46s-.48-.16-.49-.49.11-.57.52-.56S70.71,84.48,70.72,84.87Z" fill="#8f8f91"/><path d="M88,64.06c0,.45-.17.64-.51.64s-.58-.13-.58-.53.26-.41.55-.41S88,63.79,88,64.06Z" fill="#8f8f91"/><path d="M89.36,64.19c0,.36-.15.53-.5.52a.51.51,0,0,1-.57-.49c0-.4.22-.45.54-.46S89.4,63.79,89.36,64.19Z" fill="#8f8f91"/><path d="M121.83,77.16c-.39,0-.61-.08-.56-.47s.12-.6.56-.58.5.15.5.5S122.18,77.21,121.83,77.16Z" fill="#8f8f91"/><path d="M120.39,76.13c.42-.06.54.16.54.54s-.22.5-.58.5-.46-.17-.47-.5S120,76.07,120.39,76.13Z" fill="#8f8f91"/><path d="M97.21,84.72c0,.35-.08.57-.45.61s-.58-.12-.57-.52.12-.52.49-.52S97.22,84.39,97.21,84.72Z" fill="#8f8f91"/><path d="M98,84.29c.33,0,.54.07.54.45s-.09.61-.52.6-.49-.19-.48-.52S97.61,84.26,98,84.29Z" fill="#8f8f91"/><path d="M67.28,64.18c0,.42-.19.55-.5.52s-.54-.12-.54-.49.21-.47.53-.46S67.35,63.81,67.28,64.18Z" fill="#8f8f91"/><path d="M68.21,63.76c.35,0,.53.12.49.48s-.25.46-.57.46-.42-.18-.43-.47A.428.428,0,0,1,68.21,63.76Z" fill="#8f8f91"/><path d="M51.82,92.89V84.57" fill="none"/></g></svg>